<svg width="28" height="34" viewBox="0 0 28 34" fill="none" xmlns="http://www.w3.org/2000/svg">
<path fill-rule="evenodd" clip-rule="evenodd" d="M14.8696 0.515047C14.3092 0.30488 13.6916 0.30488 13.1311 0.515047L1.79778 4.76505C0.831536 5.12739 0.191406 6.0511 0.191406 7.08305V16.9997C0.191406 22.3549 3.72224 26.5251 6.70349 29.1336C8.24612 30.4834 9.77707 31.5347 10.9175 32.2475C11.4902 32.6055 11.9711 32.8821 12.3144 33.0722C12.4862 33.1673 12.6241 33.241 12.7223 33.2926C12.7715 33.3184 12.8107 33.3387 12.8394 33.3534L12.8745 33.3712L12.8859 33.377L12.8901 33.3791L12.8918 33.3799C12.8925 33.3803 12.8932 33.3806 14.0004 31.1664L12.8932 33.3806C13.5902 33.7291 14.4105 33.7291 15.1075 33.3806L14.0004 31.1664C15.1075 33.3806 15.1082 33.3803 15.1089 33.3799L15.1106 33.3791L15.1148 33.377L15.1262 33.3712L15.1613 33.3534C15.19 33.3387 15.2293 33.3184 15.2784 33.2926C15.3766 33.241 15.5145 33.1673 15.6863 33.0722C16.0297 32.8821 16.5105 32.6055 17.0833 32.2475C18.2237 31.5347 19.7546 30.4834 21.2972 29.1336C24.2785 26.5251 27.8093 22.3549 27.8093 16.9997V7.08305C27.8093 6.0511 27.1692 5.12739 26.2029 4.76505L14.8696 0.515047Z" fill="white"/>
</svg>
