<svg width="140" height="16" viewBox="0 0 140 16" fill="none" xmlns="http://www.w3.org/2000/svg">
<path fill-rule="evenodd" clip-rule="evenodd" d="M87.0962 6.933H91.3505C92.7293 6.933 93.911 5.79062 93.911 4.3725C93.911 2.99377 92.7687 1.812 91.3505 1.812H87.0962V6.933ZM93.9504 7.4057C95.211 8.07537 96.0382 9.41471 96.0382 10.9116C96.0382 13.1176 94.2262 14.8902 92.0596 14.8902H85.6387C85.6387 10.045 85.6387 5.19974 85.6387 0.354492H91.3505C93.5565 0.354492 95.3292 2.16654 95.3292 4.33311C95.3685 5.55427 94.8564 6.65725 93.9504 7.4057ZM87.0962 8.39051V13.4721H92.0596C93.4383 13.4721 94.6201 12.3297 94.6201 10.9116C94.6201 9.53288 93.4777 8.35112 92.0596 8.35112H87.0962V8.39051Z" fill="#640CD9"/>
<path fill-rule="evenodd" clip-rule="evenodd" d="M113.766 0.393555H115.223L123.968 12.4476V0.393555H125.386V14.9293H123.968L115.223 2.87527V14.9293H113.766V0.393555Z" fill="#640CD9"/>
<path fill-rule="evenodd" clip-rule="evenodd" d="M104.389 2.36317L107.304 9.65073H101.474L104.389 2.36317ZM107.895 11.0689L109.431 14.8899H111.007L105.177 0.393555H103.601L97.8105 14.9293H99.3862L100.923 11.1082H107.895V11.0689Z" fill="#640CD9"/>
<path fill-rule="evenodd" clip-rule="evenodd" d="M41.5991 3.15138C39.1174 3.15138 37.1084 5.16038 37.1084 7.64209C37.1084 10.1238 39.1174 12.1328 41.5991 12.1328C44.0808 12.1328 46.0898 10.1238 46.0898 7.64209C46.0898 5.16038 44.0808 3.15138 41.5991 3.15138ZM41.5991 0C45.8141 0 49.2412 3.42712 49.2412 7.64209C49.2412 11.8571 45.8141 15.2842 41.5991 15.2842C37.3842 15.2842 33.957 11.8571 33.957 7.64209C33.957 3.42712 37.3842 0 41.5991 0Z" fill="#640CD9"/>
<path fill-rule="evenodd" clip-rule="evenodd" d="M74.0171 3.15121C71.5354 3.15121 69.5264 5.16022 69.5264 7.64193C69.5264 10.1236 71.5354 12.1326 74.0171 12.1326C76.4988 12.1326 78.5078 10.1236 78.5078 7.64193C78.5078 5.16022 76.4988 3.15121 74.0171 3.15121ZM78.5078 1.45735V0.393755H81.5016V14.9295H78.5078V13.8659C77.2079 14.8113 75.6322 15.3234 74.0171 15.3234C69.8021 15.3234 66.375 11.8963 66.375 7.68132C66.375 3.46635 69.8021 0.0392251 74.0171 0.0392251C75.6716 -0.00016715 77.2079 0.511932 78.5078 1.45735Z" fill="#640CD9"/>
<path fill-rule="evenodd" clip-rule="evenodd" d="M55.2272 7.64176C55.2272 10.1235 57.2362 12.1325 59.7179 12.1325C60.8209 12.1325 61.8451 11.7386 62.6724 11.0295L62.7905 10.9507L64.4056 13.7476C63.0663 14.7718 61.4512 15.3233 59.7573 15.3233C55.5424 15.3233 52.1152 11.8961 52.1152 7.68116C52.1152 3.46619 55.5424 0.0390625 59.7573 0.0390625C61.4512 0.0390625 63.0663 0.590554 64.4056 1.61475L62.7905 4.4116L62.6724 4.33282C61.8451 3.54497 60.7815 3.15105 59.7179 3.15105C57.2362 3.15105 55.2272 5.16005 55.2272 7.64176Z" fill="#640CD9"/>
<path fill-rule="evenodd" clip-rule="evenodd" d="M26.2351 0.393555L29.8198 6.61753L32.656 1.6935C32.8136 1.41775 32.8136 1.10261 32.656 0.826869C32.4985 0.551124 32.2227 0.393555 31.9076 0.393555H26.2351ZM16.4658 1.6935C16.3083 1.41775 16.3083 1.10261 16.4658 0.826869C16.6234 0.551124 16.8991 0.393555 17.2143 0.393555H21.2323L27.2987 10.9507C26.629 12.093 25.9594 13.2748 25.2897 14.4172C25.1321 14.6929 24.8564 14.8505 24.5412 14.8505C24.2261 14.8505 23.9504 14.6929 23.7928 14.4172C21.3505 10.1628 18.9082 5.94786 16.4658 1.6935Z" fill="#640CD9"/>
<path fill-rule="evenodd" clip-rule="evenodd" d="M3.58469 5.75127H11.6995C10.9904 4.25436 9.41474 3.19077 7.64209 3.19077C5.86944 3.19077 4.33315 4.21497 3.58469 5.75127ZM14.5357 13.2752C12.9994 14.5751 10.9116 15.363 8.6269 15.363C4.29375 15.363 0 12.251 0 7.68149C0 3.42712 3.42712 0 7.64209 0C11.8571 0 15.2842 3.42712 15.2842 7.64209C15.2842 8.07541 15.2448 8.46933 15.166 8.86325C11.2268 8.86325 7.32695 8.86325 3.38773 8.86325C4.01801 10.7541 6.1058 12.1328 8.58751 12.1328C10.3208 12.1328 11.8571 11.4631 12.8419 10.4389L14.5357 13.2752Z" fill="#640CD9"/>
<path fill-rule="evenodd" clip-rule="evenodd" d="M129.088 0.393555H130.506V6.93267H132.436H133.46L138.187 0.393555H139.999L134.721 7.64173L139.999 14.9293H138.187L133.46 8.39018H132.436H130.506V14.9293H129.088V0.393555Z" fill="#640CD9"/>
</svg>
