<svg width="28" height="28" viewBox="0 0 28 28" fill="none" xmlns="http://www.w3.org/2000/svg">
<path d="M24.9969 12.9444L5.16355 3.61103C4.96384 3.51705 4.74156 3.48166 4.52254 3.50896C4.30351 3.53626 4.09673 3.62512 3.92619 3.76524C3.75565 3.90536 3.62836 4.09099 3.55909 4.30056C3.48983 4.51013 3.48144 4.73505 3.53489 4.94919L4.94889 10.6064L13.9999 14.0002L4.94889 17.394L3.53489 23.0512C3.48043 23.2655 3.48812 23.4909 3.55707 23.701C3.62601 23.9111 3.75335 24.0972 3.9242 24.2376C4.09504 24.3779 4.30233 24.4668 4.52181 24.4936C4.74128 24.5205 4.96388 24.4844 5.16355 24.3894L24.9969 15.056C25.1973 14.9618 25.3668 14.8125 25.4855 14.6255C25.6042 14.4386 25.6672 14.2217 25.6672 14.0002C25.6672 13.7787 25.6042 13.5618 25.4855 13.3749C25.3668 13.1879 25.1973 13.0386 24.9969 12.9444Z" fill="#D4D5DA"/>
</svg>
