<svg width="56" height="56" viewBox="0 0 56 56" fill="none" xmlns="http://www.w3.org/2000/svg">
<circle cx="28" cy="28" r="28" fill="#F7FBEC"/>
<path d="M34.6673 40V37.3333C34.6673 35.9188 34.1054 34.5623 33.1052 33.5621C32.105 32.5619 30.7485 32 29.334 32H18.6673C17.2528 32 15.8963 32.5619 14.8961 33.5621C13.8959 34.5623 13.334 35.9188 13.334 37.3333V40" stroke="#A6CE38" stroke-width="2.66667" stroke-linecap="round" stroke-linejoin="round"/>
<path d="M24.0013 26.6667C26.9468 26.6667 29.3346 24.2789 29.3346 21.3333C29.3346 18.3878 26.9468 16 24.0013 16C21.0558 16 18.668 18.3878 18.668 21.3333C18.668 24.2789 21.0558 26.6667 24.0013 26.6667Z" fill="#A6CE38" fill-opacity="0.25" stroke="#A6CE38" stroke-width="2.66667" stroke-linecap="round" stroke-linejoin="round"/>
<path d="M42.668 39.9995V37.3329C42.6671 36.1512 42.2738 35.0032 41.5498 34.0693C40.8258 33.1353 39.8121 32.4683 38.668 32.1729" stroke="#A6CE38" stroke-width="2.66667" stroke-linecap="round" stroke-linejoin="round"/>
<path d="M33.334 16.1729C34.4812 16.4666 35.498 17.1338 36.2242 18.0693C36.9503 19.0047 37.3444 20.1553 37.3444 21.3395C37.3444 22.5237 36.9503 23.6743 36.2242 24.6098C35.498 25.5452 34.4812 26.2125 33.334 26.5062" stroke="#A6CE38" stroke-width="2.66667" stroke-linecap="round" stroke-linejoin="round"/>
</svg>
