<svg width="32" height="32" viewBox="0 0 32 32" fill="none" xmlns="http://www.w3.org/2000/svg">
<circle cx="16" cy="16" r="15.5" stroke="#292E46" stroke-opacity="0.1"/>
<path d="M11.696 16.8648C11.5967 16.9008 11.5066 16.9581 11.4319 17.0327C11.3573 17.1074 11.2999 17.1976 11.264 17.2968C11.2058 17.4422 11.1916 17.6015 11.223 17.7549C11.2545 17.9083 11.3303 18.0491 11.441 18.1598C11.5518 18.2705 11.6925 18.3463 11.846 18.3778C11.9994 18.4093 12.1586 18.395 12.304 18.3368C12.4009 18.2963 12.4902 18.2395 12.568 18.1688C12.6387 18.0911 12.6955 18.0018 12.736 17.9048C12.7808 17.8099 12.8027 17.7058 12.8 17.6008C12.7971 17.389 12.7142 17.1861 12.568 17.0328C12.4555 16.9218 12.3126 16.8466 12.1575 16.8167C12.0023 16.7868 11.8417 16.8036 11.696 16.8648ZM22.208 13.6648L21.12 10.4408C20.954 9.97142 20.6462 9.56524 20.2391 9.27857C19.832 8.99189 19.3459 8.83892 18.848 8.84084H13.152C12.6541 8.83892 12.168 8.99189 11.7609 9.27857C11.3538 9.56524 11.046 9.97142 10.88 10.4408L9.792 13.6888C9.28026 13.8228 8.82713 14.1222 8.50306 14.5403C8.17899 14.9584 8.00214 15.4718 8 16.0008V19.2008C8.00139 19.696 8.1559 20.1786 8.44235 20.5825C8.7288 20.9864 9.13316 21.2918 9.6 21.4568V22.4008C9.6 22.613 9.68429 22.8165 9.83431 22.9665C9.98434 23.1166 10.1878 23.2008 10.4 23.2008C10.6122 23.2008 10.8157 23.1166 10.9657 22.9665C11.1157 22.8165 11.2 22.613 11.2 22.4008V21.6008H20.8V22.4008C20.8 22.613 20.8843 22.8165 21.0343 22.9665C21.1843 23.1166 21.3878 23.2008 21.6 23.2008C21.8122 23.2008 22.0157 23.1166 22.1657 22.9665C22.3157 22.8165 22.4 22.613 22.4 22.4008V21.4568C22.8668 21.2918 23.2712 20.9864 23.5576 20.5825C23.8441 20.1786 23.9986 19.696 24 19.2008V16.0008C23.9979 15.4718 23.821 14.9584 23.4969 14.5403C23.1729 14.1222 22.7197 13.8228 22.208 13.6888V13.6648ZM12.392 10.9448C12.4457 10.7859 12.5479 10.6479 12.6843 10.5503C12.8207 10.4527 12.9843 10.4004 13.152 10.4008H18.848C19.0225 10.3917 19.1951 10.44 19.3395 10.5382C19.484 10.6364 19.5923 10.7793 19.648 10.9448L20.488 13.6008H11.512L12.392 10.9448ZM22.4 19.2008C22.4 19.413 22.3157 19.6165 22.1657 19.7665C22.0157 19.9166 21.8122 20.0008 21.6 20.0008H10.4C10.1878 20.0008 9.98434 19.9166 9.83431 19.7665C9.68429 19.6165 9.6 19.413 9.6 19.2008V16.0008C9.6 15.7887 9.68429 15.5852 9.83431 15.4352C9.98434 15.2851 10.1878 15.2008 10.4 15.2008H21.6C21.8122 15.2008 22.0157 15.2851 22.1657 15.4352C22.3157 15.5852 22.4 15.7887 22.4 16.0008V19.2008ZM19.696 16.8648C19.5967 16.9008 19.5066 16.9581 19.4319 17.0327C19.3573 17.1074 19.2999 17.1976 19.264 17.2968C19.2058 17.4422 19.1916 17.6015 19.223 17.7549C19.2545 17.9083 19.3303 18.0491 19.441 18.1598C19.5518 18.2705 19.6925 18.3463 19.846 18.3778C19.9994 18.4093 20.1586 18.395 20.304 18.3368C20.4033 18.3009 20.4934 18.2436 20.5681 18.1689C20.6427 18.0943 20.7001 18.0041 20.736 17.9048C20.7808 17.8099 20.8027 17.7058 20.8 17.6008C20.7971 17.389 20.7142 17.1861 20.568 17.0328C20.4555 16.9218 20.3126 16.8466 20.1575 16.8167C20.0023 16.7868 19.8417 16.8036 19.696 16.8648ZM16.8 16.8008H15.2C14.9878 16.8008 14.7843 16.8851 14.6343 17.0352C14.4843 17.1852 14.4 17.3887 14.4 17.6008C14.4 17.813 14.4843 18.0165 14.6343 18.1665C14.7843 18.3166 14.9878 18.4008 15.2 18.4008H16.8C17.0122 18.4008 17.2157 18.3166 17.3657 18.1665C17.5157 18.0165 17.6 17.813 17.6 17.6008C17.6 17.3887 17.5157 17.1852 17.3657 17.0352C17.2157 16.8851 17.0122 16.8008 16.8 16.8008Z" fill="#6B85BF"/>
</svg>
