<svg width="56" height="56" viewBox="0 0 56 56" fill="none" xmlns="http://www.w3.org/2000/svg">
<circle cx="28" cy="28" r="28" fill="#F7FBEC"/>
<circle cx="27" cy="18" r="3" fill="#A6CE38" fill-opacity="0.25"/>
<path d="M40.1017 23.833H38.2773C38.0112 23.833 37.8212 23.7236 37.7072 23.5049C37.3651 22.9945 36.985 22.5934 36.5669 22.3018L36.4529 22.1924V16.833H35.2556C34.0393 16.833 32.899 17.3434 31.8348 18.3643L31.7208 18.4736V18.0908C31.7208 16.8148 31.2362 15.7028 30.2669 14.7549C29.2977 13.807 28.1289 13.333 26.7606 13.333C25.4303 13.333 24.2805 13.7887 23.3113 14.7002C22.3421 15.6117 21.8575 16.7419 21.8575 18.0908C21.8575 18.5648 21.8955 18.9294 21.9715 19.1846C20.9453 19.5492 19.9 20.2419 18.8358 21.2627L16.3842 20.4424L15.415 19.5127C14.8828 19.0023 14.3127 19.0023 13.7046 19.5127C13.2105 20.0596 13.2105 20.6064 13.7046 21.1533L15.1869 22.5752L17.2394 23.2314C16.2892 24.6169 15.8141 26.1846 15.8141 27.9346V29.6846L16.8973 39.2549C16.9733 39.8382 17.2489 40.3304 17.724 40.7314C18.1991 41.1325 18.7407 41.333 19.3489 41.333H21.0023C21.4964 41.333 21.9715 41.1872 22.4276 40.8955C22.8837 40.6038 23.1878 40.2028 23.3398 39.6924L24.195 37.3408C25.4493 37.7054 26.8176 37.833 28.3 37.7236L29.0411 39.6924C29.4973 40.7132 30.2764 41.2236 31.3787 41.2236H33.0891C33.6972 41.2236 34.2389 41.014 34.714 40.5947C35.1891 40.1755 35.4456 39.6742 35.4836 39.0908L35.9968 34.4424C37.099 33.3851 37.8592 32.2913 38.2773 31.1611C38.3913 30.8695 38.6384 30.7236 39.0185 30.7236H39.2465C40.1587 30.7236 40.9569 30.3955 41.6411 29.7393C42.3252 29.083 42.6673 28.3174 42.6673 27.4424V26.1846C42.5913 25.5283 42.3157 24.9723 41.8406 24.5166C41.3655 24.0609 40.7859 23.833 40.1017 23.833ZM26.8746 15.6846C27.5588 15.6846 28.1574 15.9215 28.6706 16.3955C29.1837 16.8695 29.4402 17.4346 29.4402 18.0908C29.4402 18.7835 29.1932 19.3669 28.6991 19.8408C28.2049 20.3148 27.5968 20.5518 26.8746 20.5518C26.1525 20.4788 25.5443 20.2145 25.0502 19.7588C24.5561 19.3031 24.309 18.7471 24.309 18.0908C24.309 17.4346 24.5561 16.8695 25.0502 16.3955C25.5443 15.9215 26.1525 15.6846 26.8746 15.6846ZM40.1017 27.5518C40.1017 27.807 40.0067 28.0257 39.8167 28.208C39.6266 28.3903 39.3986 28.4814 39.1325 28.4814H38.9044C37.5361 28.4814 36.5289 29.1559 35.8827 30.5049C35.5407 31.307 34.8945 32.2002 33.9443 33.1846L33.5452 33.5127L32.918 38.9814H31.2647L29.8963 35.2627L28.9271 35.3721C28.509 35.445 27.9769 35.4814 27.3307 35.4814C26.2285 35.4814 25.0502 35.2992 23.7959 34.9346L22.5986 34.4424L21.0023 38.9814H19.3489L18.2086 29.5752V27.9346C18.2086 26.3669 18.7027 24.9997 19.691 23.833C19.9384 23.5622 20.052 23.3773 20.5462 22.9033C21.0403 22.4294 21.8955 21.8825 23.1118 21.2627C24.1 22.3564 25.3163 22.9033 26.7606 22.9033C28.547 22.9033 29.9153 22.2106 30.8656 20.8252H30.9796C31.5117 21.0804 32.2909 20.8799 33.3171 20.2236C33.3932 20.1872 33.5072 20.1051 33.6592 19.9775C33.8113 19.8499 33.9443 19.7679 34.0583 19.7314V23.2314L34.4004 23.6143C34.6284 23.833 34.8375 24.0153 35.0275 24.1611L35.3411 24.4619L35.5977 24.7627C36.2818 25.7835 37.175 26.2939 38.2773 26.2939H40.1017V27.5518ZM32.804 23.833C32.804 24.1611 32.69 24.4346 32.4619 24.6533C32.2339 24.8721 31.9488 24.9814 31.6067 24.9814C31.2647 24.9814 30.9796 24.8721 30.7515 24.6533C30.5235 24.4346 30.4095 24.1611 30.4095 23.833C30.4095 23.5049 30.5235 23.2314 30.7515 23.0127C30.9796 22.7939 31.2647 22.6846 31.6067 22.6846C31.9488 22.6846 32.2339 22.7939 32.4619 23.0127C32.69 23.2314 32.804 23.5049 32.804 23.833Z" fill="#A6CE38"/>
</svg>
