<svg width="48" height="48" viewBox="0 0 48 48" fill="none" xmlns="http://www.w3.org/2000/svg">
<circle cx="24" cy="24" r="24" fill="#F4F5F6"/>
<path fill-rule="evenodd" clip-rule="evenodd" d="M13.0003 20.0402C13.0003 18.4509 13.1346 17.4422 16.4526 14.9853C19.1995 12.9512 28.0042 6 28.0042 6V17.6037H34.7V34.3043H15.0917C13.9415 34.3043 13 33.3704 13 32.2293L13.0003 20.0403V20.0402Z" fill="#FFCF01"/>
<path fill-rule="evenodd" clip-rule="evenodd" d="M28.0042 18.689V25.4125L15.7002 33.7277L31.2564 28.7066V18.689H28.0042Z" fill="#D3AC06"/>
<path fill-rule="evenodd" clip-rule="evenodd" d="M22.3818 18.3407C23.1014 17.4902 24.1522 17.19 24.7292 17.6703C25.3062 18.1506 25.1909 19.2295 24.4713 20.0801C23.7523 20.9305 22.701 21.2303 22.124 20.75C21.547 20.2697 21.6627 19.191 22.3818 18.3406V18.3407Z" fill="#231F20"/>
</svg>
