<svg width="56" height="56" viewBox="0 0 56 56" fill="none" xmlns="http://www.w3.org/2000/svg">
<circle cx="28" cy="28" r="28" fill="#F7FBEC"/>
<rect x="20" y="18" width="16" height="7" fill="#A6CE38" fill-opacity="0.25"/>
<path d="M20.826 29.4398C20.6606 29.4997 20.5103 29.5952 20.3859 29.7196C20.2614 29.844 20.1659 29.9943 20.106 30.1598C20.009 30.4021 19.9853 30.6675 20.0377 30.9232C20.0902 31.1789 20.2165 31.4135 20.4011 31.5981C20.5856 31.7826 20.8203 31.9089 21.0759 31.9614C21.3316 32.0138 21.597 31.9901 21.8393 31.8931C22.0009 31.8256 22.1497 31.7309 22.2793 31.6131C22.3971 31.4835 22.4918 31.3347 22.5593 31.1731C22.634 31.0149 22.6705 30.8413 22.666 30.6664C22.6611 30.3134 22.523 29.9753 22.2793 29.7198C22.0919 29.5348 21.8538 29.4094 21.5951 29.3596C21.3364 29.3098 21.0688 29.3377 20.826 29.4398ZM38.346 24.1064L36.5327 18.7331C36.2561 17.9507 35.743 17.2738 35.0646 16.796C34.3861 16.3182 33.5758 16.0632 32.746 16.0664H23.2527C22.4229 16.0632 21.6126 16.3182 20.9341 16.796C20.2557 17.2738 19.7426 17.9507 19.466 18.7331L17.6527 24.1464C16.7998 24.3698 16.0446 24.8687 15.5045 25.5655C14.9643 26.2623 14.6696 27.1181 14.666 27.9998V33.3331C14.6683 34.1584 14.9259 34.9627 15.4033 35.6359C15.8807 36.309 16.5546 36.818 17.3327 37.0931V38.6664C17.3327 39.0201 17.4732 39.3592 17.7232 39.6092C17.9733 39.8593 18.3124 39.9998 18.666 39.9998C19.0196 39.9998 19.3588 39.8593 19.6088 39.6092C19.8589 39.3592 19.9993 39.0201 19.9993 38.6664V37.3331H35.9993V38.6664C35.9993 39.0201 36.1398 39.3592 36.3899 39.6092C36.6399 39.8593 36.9791 39.9998 37.3327 39.9998C37.6863 39.9998 38.0254 39.8593 38.2755 39.6092C38.5255 39.3592 38.666 39.0201 38.666 38.6664V37.0931C39.4441 36.818 40.118 36.309 40.5954 35.6359C41.0728 34.9627 41.3304 34.1584 41.3327 33.3331V27.9998C41.3291 27.1181 41.0344 26.2623 40.4942 25.5655C39.9541 24.8687 39.1989 24.3698 38.346 24.1464V24.1064ZM21.986 19.5731C22.0755 19.3083 22.2459 19.0783 22.4732 18.9156C22.7005 18.7529 22.9732 18.6657 23.2527 18.6664H32.746C33.0368 18.6513 33.3245 18.7317 33.5653 18.8954C33.806 19.0591 33.9866 19.2971 34.0793 19.5731L35.4794 23.9998H20.5193L21.986 19.5731ZM38.666 33.3331C38.666 33.6867 38.5255 34.0259 38.2755 34.2759C38.0254 34.526 37.6863 34.6664 37.3327 34.6664H18.666C18.3124 34.6664 17.9733 34.526 17.7232 34.2759C17.4732 34.0259 17.3327 33.6867 17.3327 33.3331V27.9998C17.3327 27.6461 17.4732 27.307 17.7232 27.057C17.9733 26.8069 18.3124 26.6664 18.666 26.6664H37.3327C37.6863 26.6664 38.0254 26.8069 38.2755 27.057C38.5255 27.307 38.666 27.6461 38.666 27.9998V33.3331ZM34.1594 29.4398C33.9939 29.4997 33.8436 29.5952 33.7192 29.7196C33.5948 29.844 33.4992 29.9943 33.4394 30.1598C33.3424 30.4021 33.3186 30.6675 33.3711 30.9232C33.4235 31.1789 33.5498 31.4135 33.7344 31.5981C33.9189 31.7826 34.1536 31.9089 34.4093 31.9614C34.6649 32.0138 34.9304 31.9901 35.1727 31.8931C35.3381 31.8332 35.4884 31.7377 35.6128 31.6133C35.7373 31.4888 35.8328 31.3386 35.8927 31.1731C35.9673 31.0149 36.0039 30.8413 35.9993 30.6664C35.9944 30.3134 35.8563 29.9753 35.6127 29.7198C35.4252 29.5348 35.1871 29.4094 34.9284 29.3596C34.6698 29.3098 34.4022 29.3377 34.1594 29.4398ZM29.3327 29.3331H26.666C26.3124 29.3331 25.9733 29.4736 25.7232 29.7236C25.4732 29.9737 25.3327 30.3128 25.3327 30.6664C25.3327 31.0201 25.4732 31.3592 25.7232 31.6092C25.9733 31.8593 26.3124 31.9998 26.666 31.9998H29.3327C29.6863 31.9998 30.0254 31.8593 30.2755 31.6092C30.5255 31.3592 30.666 31.0201 30.666 30.6664C30.666 30.3128 30.5255 29.9737 30.2755 29.7236C30.0254 29.4736 29.6863 29.3331 29.3327 29.3331Z" fill="#A6CE38"/>
</svg>
