<svg width="177" height="46" viewBox="0 0 177 46" fill="none" xmlns="http://www.w3.org/2000/svg">
<path d="M3.59573 20.2291L17.1614 12.4382C19.1227 11.2961 19.1227 9.41975 17.1614 8.31842L3.59573 0.486699C1.63442 -0.655426 0 0.282748 0 2.567V18.1896C0 20.4331 1.63442 21.3713 3.59573 20.2291Z" fill="#A6CE38"/>
<path d="M17.6109 13.5804L3.55486 22.0648C1.59356 23.2477 0 26.0622 0 28.3464V43.4796C0 45.7638 1.59356 46.6612 3.55486 45.4783L17.6109 36.994C19.5722 35.811 21.1657 32.9965 21.1657 30.7123V15.5791C21.1249 13.2949 19.5313 12.3975 17.6109 13.5804ZM3.55486 35.24C2.73765 35.7295 2.08389 35.4847 2.08389 34.6689C2.08389 33.8531 2.73765 32.7926 3.55486 32.3031C4.37208 31.8136 5.02584 32.0583 5.02584 32.8742C5.02584 33.69 4.37208 34.7505 3.55486 35.24Z" fill="#A6CE38"/>
<path d="M30.5218 24.879C30.6444 27.4488 32.1154 29.1212 34.7304 29.1212C36.2014 29.1212 37.6315 28.4685 38.2036 27.0816H43.9241C42.78 31.3646 38.8165 33.241 34.6487 33.241C28.5605 33.241 24.4336 29.5698 24.4336 23.3289C24.4336 17.6183 29.01 13.4985 34.5261 13.4985C41.2273 13.4985 44.5778 18.5157 44.2918 24.8382H30.5218V24.879ZM38.1219 21.4526C37.9993 19.3315 36.5283 17.6591 34.4853 17.6591C32.3197 17.6591 30.9304 19.1683 30.5218 21.4526H38.1219Z" fill="#292E46"/>
<path d="M45.2725 19.8212C45.3951 17.3738 46.4983 15.783 48.1736 14.8448C49.8489 13.9066 51.9327 13.5395 54.0984 13.5395C58.5113 13.5395 62.8016 14.5185 62.8016 19.7804V27.9385C62.8016 29.5293 62.8016 31.2425 63.5371 32.7109H57.3672C57.122 32.1398 57.122 31.5688 56.9995 30.9569C55.4059 32.6293 53.1177 33.2412 50.8295 33.2412C47.2338 33.2412 44.4553 31.4464 44.4553 27.6121C44.4553 21.5752 51.0747 22.0239 55.3242 21.1265C56.3865 20.8817 56.9586 20.5554 56.9586 19.4133C56.9586 18.0264 55.2833 17.4554 54.0166 17.4554C52.2596 17.4554 51.2381 18.2304 50.9521 19.7804H45.2725V19.8212ZM53.1586 29.4885C56.0597 29.4885 57.0403 27.8569 56.9177 23.9818C56.0597 24.5121 54.4661 24.5937 53.1586 25.0016C51.7693 25.3279 50.6252 25.8989 50.6252 27.3674C50.6252 28.8766 51.7693 29.4885 53.1586 29.4885Z" fill="#292E46"/>
<path d="M69.7887 26.5516C69.7887 27.5306 70.1973 28.1832 70.8102 28.6319C71.3823 29.0806 72.1995 29.2845 73.0984 29.2845C74.2425 29.2845 75.9586 28.7543 75.9586 27.3266C75.9586 25.8582 73.9973 25.6542 72.9758 25.3687C69.1349 24.3897 64.3134 24.3081 64.3134 19.2501C64.3134 14.804 69.1758 13.5395 72.8532 13.5395C76.9393 13.5395 81.2705 14.7224 81.4748 19.5765H75.836C75.836 18.8015 75.5909 18.2712 75.0597 17.9449C74.6102 17.6185 73.9565 17.4962 73.0984 17.4962C72.0769 17.4962 70.4833 17.6185 70.4833 18.883C70.4833 20.5962 74.5694 21.0041 77.3887 21.5752C81.1479 22.3502 82.1286 25.0423 82.1286 26.5924C82.1286 31.5688 77.3888 33.2412 73.1801 33.2412C68.7263 33.2412 64.2317 31.7727 64.0274 26.5516H69.7887Z" fill="#292E46"/>
<path d="M93.4469 34.3424C92.0168 38.4214 89.7286 38.9517 85.6426 38.9517H82.7823V34.0161H84.9071C86.2963 34.0161 87.3587 33.2411 87.3587 31.9358C87.3587 30.9161 86.1737 28.0607 85.806 27.041L80.9845 14.0697H87.4404L90.9544 26.2252H91.0361L94.5502 14.0697H100.802L93.4469 34.3424Z" fill="#292E46"/>
<path d="M99.004 14.1512H101.415L106.155 30.0186H106.236L110.772 14.1512H113.346L117.882 30.0186H117.963L122.703 14.1512H125.114L119.148 32.7107H116.656L112.079 17.1289H111.998L107.462 32.7107H105.011L99.004 14.1512Z" fill="#292E46"/>
<path d="M125.563 19.8214C125.809 15.4568 128.791 13.6213 133.082 13.6213C136.351 13.6213 139.905 14.6002 139.905 19.5766V29.4071C139.905 30.3044 140.355 30.7531 141.254 30.7531C141.499 30.7531 141.703 30.7123 141.989 30.59V32.5071C141.458 32.6295 141.131 32.6703 140.518 32.6703C138.23 32.6703 137.862 31.3242 137.862 29.4478H137.781C136.146 31.8545 134.594 33.2006 130.998 33.2006C127.525 33.2006 124.787 31.5282 124.787 27.7755C124.787 22.5951 129.854 22.3911 134.757 21.8201C136.637 21.6569 137.658 21.3306 137.658 19.2911C137.658 16.2318 135.492 15.4976 132.796 15.4976C129.935 15.4976 127.933 16.8029 127.811 19.8214H125.563ZM137.658 22.5543H137.576C137.29 23.0846 136.269 23.2885 135.656 23.3701C131.815 24.0635 127.034 24.0635 127.034 27.6531C127.034 29.8965 128.996 31.3242 131.161 31.3242C134.634 31.3242 137.658 29.1215 137.658 25.4912V22.5543Z" fill="#292E46"/>
<path d="M142.684 7.05371H144.972V32.7107H142.684V7.05371Z" fill="#292E46"/>
<path d="M147.546 7.05371H149.834V32.7107H147.546V7.05371Z" fill="#292E46"/>
<path d="M153.675 24.0228C153.675 27.3268 155.473 31.3242 159.804 31.3242C163.114 31.3242 164.912 29.4071 165.648 26.5925H167.936C166.955 30.7939 164.544 33.2413 159.845 33.2413C153.961 33.2413 151.469 28.7136 151.469 23.4109C151.469 18.5161 153.961 13.6213 159.845 13.6213C165.77 13.6213 168.181 18.8424 168.017 24.0228H153.675ZM165.729 22.1464C165.607 18.72 163.441 15.5384 159.845 15.5384C156.086 15.5384 154.125 18.7608 153.716 22.1464H165.729Z" fill="#292E46"/>
<path d="M172.839 14.1513H176.598V16.0684H172.839V28.591C172.839 30.0594 173.043 30.916 174.678 31.0384C175.332 31.0384 175.985 30.9976 176.639 30.916V32.874C175.944 32.874 175.291 32.9555 174.637 32.9555C171.613 32.9555 170.551 31.9358 170.592 28.7949V16.0684H167.364V14.1513H170.592V8.60379H172.88V14.1513H172.839Z" fill="#292E46"/>
</svg>
