<svg width="137" height="29" viewBox="0 0 137 29" fill="none" xmlns="http://www.w3.org/2000/svg">
<path d="M39.0478 24.8014H26.6798V5.31299H39.0478V7.92003H29.7015V13.6202H38.5473V16.132H29.7015V22.1849H39.0478V24.8014Z" fill="#292E46"/>
<path d="M46.4113 17.1042H52.2974L49.3948 8.55391H49.3138L46.4113 17.1042ZM53.0695 19.5349H45.6392L43.8567 24.8014H40.7111L47.7458 5.31299H51.0153L58.05 24.8014H54.8472L53.0695 19.5349Z" fill="#292E46"/>
<path d="M62.1733 19.3734C62.3877 21.3036 64.2656 22.5762 66.8345 22.5762C69.2938 22.5762 71.062 21.3084 71.062 19.564C71.062 18.0532 69.9944 17.1476 67.4684 16.5233L64.9423 15.918C61.363 15.0553 59.7044 13.3776 59.7044 10.6658C59.7044 7.30092 62.6356 4.99414 66.7963 4.99414C70.9142 4.99414 73.7357 7.30568 73.8311 10.6658H70.8856C70.7093 8.7212 69.1031 7.54399 66.7534 7.54399C64.4038 7.54399 62.7976 8.73074 62.7976 10.4608C62.7976 11.8382 63.8223 12.6484 66.334 13.268L68.4835 13.7923C72.4823 14.736 74.1408 16.3469 74.1408 19.1923C74.1408 22.8383 71.2383 25.1212 66.62 25.1212C62.2972 25.1212 59.3803 22.8907 59.1897 19.3686H62.1733V19.3734Z" fill="#292E46"/>
<path d="M82.0814 24.8014V16.823L75.223 5.31299H78.5974L83.5684 13.9157H83.6637L88.6347 5.31299H91.9805L85.1078 16.823V24.8014H82.0814Z" fill="#292E46"/>
<path d="M95.9935 15.8079H100.64C103.638 15.8079 105.435 14.1493 105.435 11.3802C105.435 8.61111 103.653 6.96205 100.64 6.96205H95.9935V15.8079ZM101.074 5.31299C104.787 5.31299 107.327 7.75798 107.327 11.3754C107.327 14.9929 104.773 17.4522 101.06 17.4522H95.9935V24.8014H94.1586V5.31299H101.074Z" fill="#292E46"/>
<path d="M111.393 17.2377H118.471L114.972 7.59593H114.891L111.393 17.2377ZM119.023 18.8343H110.84L108.681 24.8014H106.722L114.014 5.31299H115.849L123.127 24.8014H121.182L119.023 18.8343Z" fill="#292E46"/>
<path d="M128.168 24.8014V16.375L121.186 5.31299H123.293L129.06 14.5639H129.126L134.893 5.31299H137L130.018 16.375V24.8014H128.168Z" fill="#292E46"/>
<path d="M1.5018 0.55677L6.41561 3.39258L11.3294 6.22839C11.9967 6.61444 11.9967 7.57718 11.3294 7.95847L6.41561 10.7943L1.5018 13.6349C0.83455 14.0209 0.000488281 13.5395 0.000488281 12.7722V7.09581V1.42419C0.000488281 0.656858 0.83455 0.175485 1.5018 0.55677Z" fill="#A6CE39"/>
<path d="M13.3105 7.96326L8.39667 10.7991L3.48286 13.6349C2.81561 14.0209 2.81561 14.9837 3.48286 15.365L8.39667 18.2008L13.3105 21.0366C13.9777 21.4226 14.8118 20.9413 14.8118 20.1692V14.4975V8.82592C14.807 8.05858 13.9777 7.57721 13.3105 7.96326Z" fill="#A6CE39"/>
<path d="M11.3242 21.0416L6.41036 18.2058L1.50131 15.37C0.834061 14.984 0 15.4653 0 16.2327V21.9043V27.5759C0 28.3432 0.834061 28.8246 1.50131 28.4433L6.41512 25.6075L11.3289 22.7717C11.9914 22.3904 11.9914 21.4277 11.3242 21.0416Z" fill="#A6CE39"/>
</svg>
