<svg width="257" height="257" viewBox="0 0 257 257" fill="none" xmlns="http://www.w3.org/2000/svg">
<path d="M128.001 16.5C94.8308 16.5 65.028 30.9201 44.52 53.8334C33.4944 66.1522 25.1553 80.9259 20.4238 97.2335" stroke="#80CAFF" stroke-width="8" stroke-linecap="round"/>
<path d="M16.0025 128.5C16.0025 145.155 19.6775 160.96 26.2692 175.167C26.9903 176.742 27.7467 178.298 28.5376 179.834M16 128.5C16 117.648 17.5434 107.157 20.4226 97.2334" stroke="#F38CAF" stroke-width="8" stroke-linecap="round"/>
<path d="M211.069 203.166C190.619 226.08 160.901 240.5 127.825 240.5C84.5933 240.5 47.0991 215.867 28.5371 179.833" stroke="#FFB677" stroke-width="8" stroke-linecap="round" stroke-linejoin="round"/>
<path d="M128.002 16.5C189.858 16.5 240.002 66.6442 240.002 128.5C240.002 157.186 229.218 183.352 211.483 203.167" stroke="#6B85BF" stroke-width="8" stroke-linecap="round"/>
<path d="M60.2552 148.704V150H52.8752V144.168C52.8752 143.128 53.1952 142.332 53.8352 141.78C54.4752 141.22 55.3272 140.94 56.3912 140.94C57.0792 140.94 57.6872 141.064 58.2152 141.312C58.7512 141.552 59.1672 141.916 59.4632 142.404C59.7592 142.884 59.9072 143.472 59.9072 144.168V145.2H58.4072V144.648C58.4072 144.112 58.3512 143.672 58.2392 143.328C58.1272 142.976 57.9232 142.708 57.6272 142.524C57.3392 142.332 56.9272 142.236 56.3912 142.236C55.8632 142.236 55.4512 142.328 55.1552 142.512C54.8672 142.696 54.6632 142.96 54.5432 143.304C54.4312 143.648 54.3752 144.084 54.3752 144.612V148.704H60.2552ZM66.5382 150.204C65.4742 150.204 64.6222 149.928 63.9822 149.376C63.3422 148.816 63.0222 148.016 63.0222 146.976V142.44H61.5822V141.144H64.5222V146.532C64.5222 147.06 64.5782 147.496 64.6902 147.84C64.8102 148.184 65.0142 148.448 65.3022 148.632C65.5982 148.816 66.0102 148.908 66.5382 148.908C67.0742 148.908 67.4862 148.816 67.7742 148.632C68.0702 148.44 68.2742 148.172 68.3862 147.828C68.4982 147.476 68.5542 147.032 68.5542 146.496V145.944H70.0542V146.976C70.0542 147.672 69.9062 148.264 69.6102 148.752C69.3142 149.232 68.8982 149.596 68.3622 149.844C67.8342 150.084 67.2262 150.204 66.5382 150.204ZM80.6459 147.408H79.0739V150H77.5739V144.648C77.5739 144.112 77.5179 143.672 77.4059 143.328C77.2939 142.976 77.0899 142.708 76.7939 142.524C76.5059 142.332 76.0939 142.236 75.5579 142.236C75.0299 142.236 74.6179 142.328 74.3219 142.512C74.0339 142.696 73.8299 142.96 73.7099 143.304C73.5979 143.648 73.5419 144.084 73.5419 144.612V145.2H72.0419V144.168C72.0419 143.128 72.3619 142.332 73.0019 141.78C73.6419 141.22 74.4939 140.94 75.5579 140.94C76.2459 140.94 76.8539 141.064 77.3819 141.312C77.9179 141.552 78.3339 141.916 78.6299 142.404C78.9259 142.884 79.0739 143.472 79.0739 144.168V146.112H80.6459V147.408ZM82.7383 148.008C82.6903 147.992 82.5663 147.948 82.3663 147.876C82.1743 147.796 81.9943 147.744 81.8263 147.72L83.1823 145.056C83.7103 144.016 84.1983 143.212 84.6463 142.644C85.0943 142.076 85.5503 141.672 86.0143 141.432C86.4863 141.192 87.0343 141.072 87.6583 141.072C87.9303 141.072 88.1383 141.096 88.2823 141.144V142.668C88.1063 142.628 87.9223 142.608 87.7303 142.608C87.3783 142.608 87.0663 142.66 86.7943 142.764C86.5223 142.86 86.2183 143.084 85.8823 143.436C85.5463 143.788 85.1743 144.328 84.7663 145.056L83.7463 146.856L88.9903 148.644V150.204L82.7383 148.008ZM98.9573 150.18L97.1453 149.388C96.8333 149.66 96.4613 149.864 96.0293 150C95.5973 150.136 95.1213 150.204 94.6013 150.204C93.9133 150.204 93.3013 150.084 92.7653 149.844C92.2373 149.596 91.8253 149.232 91.5293 148.752C91.2333 148.264 91.0853 147.672 91.0853 146.976V141.144H92.5853V146.496C92.5853 147.032 92.6413 147.476 92.7533 147.828C92.8653 148.172 93.0653 148.44 93.3533 148.632C93.6493 148.816 94.0653 148.908 94.6013 148.908C95.1293 148.908 95.5373 148.816 95.8253 148.632C96.1213 148.448 96.3253 148.184 96.4373 147.84C96.5573 147.496 96.6173 147.06 96.6173 146.532V141.144H98.1173V146.976C98.1173 147.392 98.0613 147.78 97.9493 148.14L98.9573 148.56V150.18ZM104.748 150.204C103.684 150.204 102.832 149.928 102.192 149.376C101.552 148.816 101.232 148.016 101.232 146.976V142.44H99.7923V141.144H102.732V146.532C102.732 147.06 102.788 147.496 102.9 147.84C103.02 148.184 103.224 148.448 103.512 148.632C103.808 148.816 104.22 148.908 104.748 148.908C105.284 148.908 105.696 148.816 105.984 148.632C106.28 148.44 106.484 148.172 106.596 147.828C106.708 147.476 106.764 147.032 106.764 146.496V145.944H108.264V146.976C108.264 147.672 108.116 148.264 107.82 148.752C107.524 149.232 107.108 149.596 106.572 149.844C106.044 150.084 105.436 150.204 104.748 150.204ZM111.087 144.168C111.087 143.128 111.407 142.332 112.047 141.78C112.687 141.22 113.539 140.94 114.603 140.94C115.291 140.94 115.899 141.064 116.427 141.312C116.963 141.552 117.379 141.916 117.675 142.404C117.971 142.884 118.119 143.472 118.119 144.168V150H116.619V144.648C116.619 144.112 116.563 143.672 116.451 143.328C116.339 142.976 116.135 142.708 115.839 142.524C115.551 142.332 115.139 142.236 114.603 142.236C114.075 142.236 113.663 142.328 113.367 142.512C113.079 142.696 112.875 142.96 112.755 143.304C112.643 143.648 112.587 144.084 112.587 144.612V150H111.087V144.168ZM120.994 141.156H122.494V143.172H123.37C124.314 143.172 125.03 143.4 125.518 143.856C126.006 144.304 126.366 144.984 126.598 145.896C126.694 146.28 126.818 146.556 126.97 146.724C127.122 146.884 127.37 146.964 127.714 146.964H127.882V148.26H127.762C127.138 148.26 126.646 148.172 126.286 147.996C125.926 147.82 125.654 147.576 125.47 147.264C125.294 146.952 125.146 146.54 125.026 146.028C124.898 145.476 124.702 145.08 124.438 144.84C124.174 144.592 123.754 144.468 123.178 144.468H122.494V150H120.994V141.156ZM129.917 144.168C129.917 143.128 130.237 142.332 130.877 141.78C131.517 141.22 132.369 140.94 133.433 140.94C134.121 140.94 134.729 141.064 135.257 141.312C135.793 141.552 136.209 141.916 136.505 142.404C136.801 142.884 136.949 143.472 136.949 144.168V145.2H135.449V144.648C135.449 144.112 135.393 143.672 135.281 143.328C135.169 142.976 134.965 142.708 134.669 142.524C134.381 142.332 133.969 142.236 133.433 142.236C132.905 142.236 132.493 142.328 132.197 142.512C131.909 142.696 131.705 142.96 131.585 143.304C131.473 143.648 131.417 144.084 131.417 144.612V150H129.917V144.168ZM147.953 150.204C147.177 150.204 146.505 150.036 145.937 149.7C145.369 149.356 144.933 148.888 144.629 148.296C144.333 147.704 144.185 147.04 144.185 146.304C144.185 145.072 144.593 144.124 145.409 143.46H145.241C144.665 143.46 144.189 143.332 143.813 143.076C143.437 142.82 143.249 142.416 143.249 141.864V141.144H144.761V141.348C144.761 141.652 144.853 141.868 145.037 141.996C145.229 142.116 145.545 142.176 145.985 142.176H152.309V143.46H150.485C151.301 144.124 151.709 145.072 151.709 146.304C151.709 147.032 151.557 147.692 151.253 148.284C150.957 148.876 150.525 149.344 149.957 149.688C149.397 150.032 148.729 150.204 147.953 150.204ZM147.941 148.908C148.725 148.908 149.297 148.664 149.657 148.176C150.025 147.688 150.209 147.064 150.209 146.304C150.209 145.8 150.129 145.332 149.969 144.9C149.817 144.468 149.569 144.12 149.225 143.856C148.889 143.584 148.461 143.448 147.941 143.448C147.437 143.448 147.017 143.58 146.681 143.844C146.345 144.108 146.093 144.456 145.925 144.888C145.765 145.32 145.685 145.792 145.685 146.304C145.685 147.072 145.865 147.7 146.225 148.188C146.585 148.668 147.157 148.908 147.941 148.908ZM162.224 150.18L160.412 149.388C160.1 149.66 159.728 149.864 159.296 150C158.864 150.136 158.388 150.204 157.868 150.204C157.18 150.204 156.568 150.084 156.032 149.844C155.504 149.596 155.092 149.232 154.796 148.752C154.5 148.264 154.352 147.672 154.352 146.976V141.144H155.852V146.496C155.852 147.032 155.908 147.476 156.02 147.828C156.132 148.172 156.332 148.44 156.62 148.632C156.916 148.816 157.332 148.908 157.868 148.908C158.396 148.908 158.804 148.816 159.092 148.632C159.388 148.448 159.592 148.184 159.704 147.84C159.824 147.496 159.884 147.06 159.884 146.532V141.144H161.384V146.976C161.384 147.392 161.328 147.78 161.216 148.14L162.224 148.56V150.18ZM171.112 150.204C168.88 150.204 167.764 149.096 167.764 146.88V145.092H165.772V150H164.26V141.144H165.772V143.796H169.276V146.88C169.276 147.552 169.424 148.06 169.72 148.404C170.016 148.74 170.48 148.908 171.112 148.908C171.744 148.908 172.196 148.74 172.468 148.404C172.748 148.068 172.888 147.56 172.888 146.88V143.796H174.4V146.88C174.4 147.944 174.128 148.764 173.584 149.34C173.048 149.916 172.224 150.204 171.112 150.204ZM180.8 150.204C180.112 150.204 179.5 150.084 178.964 149.844C178.436 149.596 178.024 149.232 177.728 148.752C177.432 148.264 177.284 147.672 177.284 146.976V141.144H178.784V146.496C178.784 147.032 178.84 147.476 178.952 147.828C179.064 148.172 179.264 148.44 179.552 148.632C179.848 148.816 180.264 148.908 180.8 148.908C181.328 148.908 181.736 148.816 182.024 148.632C182.32 148.448 182.524 148.184 182.636 147.84C182.756 147.496 182.816 147.06 182.816 146.532V141.144H184.316V146.976C184.316 148.016 183.996 148.816 183.356 149.376C182.716 149.928 181.864 150.204 180.8 150.204ZM190.707 150.204C189.643 150.204 188.791 149.928 188.151 149.376C187.511 148.816 187.191 148.016 187.191 146.976V141.144H188.691V143.796H194.559V145.092H188.691V146.532C188.691 147.06 188.747 147.496 188.859 147.84C188.979 148.184 189.183 148.448 189.471 148.632C189.767 148.816 190.179 148.908 190.707 148.908C191.243 148.908 191.655 148.816 191.943 148.632C192.239 148.44 192.443 148.172 192.555 147.828C192.667 147.476 192.723 147.032 192.723 146.496V146.004H194.223V146.976C194.223 147.672 194.075 148.264 193.779 148.752C193.483 149.232 193.067 149.596 192.531 149.844C192.003 150.084 191.395 150.204 190.707 150.204ZM197.156 144.168C197.156 143.128 197.476 142.332 198.116 141.78C198.756 141.22 199.608 140.94 200.672 140.94C201.36 140.94 201.968 141.064 202.496 141.312C203.032 141.552 203.448 141.916 203.744 142.404C204.04 142.884 204.188 143.472 204.188 144.168V145.2H202.688V144.648C202.688 144.112 202.632 143.672 202.52 143.328C202.408 142.976 202.204 142.708 201.908 142.524C201.62 142.332 201.208 142.236 200.672 142.236C200.144 142.236 199.732 142.328 199.436 142.512C199.148 142.696 198.944 142.96 198.824 143.304C198.712 143.648 198.656 144.084 198.656 144.612V150H197.156V144.168Z" fill="#9496A2"/>
<g clip-path="url(#clip0)">
<path d="M76.3162 128.5H71.2762V116.516H66.6002V113.016H67.0202C68.5322 113.016 69.7735 112.671 70.7442 111.98C71.7335 111.289 72.2748 110.291 72.3682 108.984H76.3162V128.5ZM90.2009 108.732C91.5262 108.732 92.7302 108.947 93.8129 109.376C94.9142 109.805 95.7822 110.431 96.4169 111.252C97.0515 112.055 97.3689 113.007 97.3689 114.108C97.3689 115.079 97.0982 115.937 96.5569 116.684C96.0155 117.431 95.3249 117.897 94.4849 118.084V118.14C95.6422 118.383 96.5382 118.915 97.1729 119.736C97.8262 120.557 98.1529 121.565 98.1529 122.76C98.1529 124.011 97.8075 125.093 97.1169 126.008C96.4449 126.904 95.5022 127.585 94.2889 128.052C93.0942 128.519 91.7222 128.752 90.1729 128.752C87.6715 128.752 85.7022 128.229 84.2649 127.184C82.8275 126.139 82.1089 124.664 82.1089 122.76C82.1089 121.621 82.4542 120.613 83.1449 119.736C83.8542 118.859 84.7595 118.327 85.8609 118.14V118.084C84.9649 117.879 84.2555 117.421 83.7329 116.712C83.2102 115.984 82.9489 115.116 82.9489 114.108C82.9489 112.932 83.2942 111.943 83.9849 111.14C84.6755 110.319 85.5715 109.712 86.6729 109.32C87.7929 108.928 88.9689 108.732 90.2009 108.732ZM87.1769 114.472C87.1769 115.219 87.4382 115.788 87.9609 116.18C88.5022 116.572 89.2302 116.768 90.1449 116.768C91.0222 116.768 91.7409 116.563 92.3009 116.152C92.8609 115.741 93.1409 115.181 93.1409 114.472C93.1409 113.781 92.8702 113.24 92.3289 112.848C91.7875 112.437 91.0502 112.232 90.1169 112.232C89.2582 112.232 88.5489 112.428 87.9889 112.82C87.4475 113.193 87.1769 113.744 87.1769 114.472ZM86.8689 122.508C86.8689 123.367 87.1675 124.039 87.7649 124.524C88.3809 125.009 89.1742 125.252 90.1449 125.252C91.1529 125.252 91.9462 125.009 92.5249 124.524C93.1035 124.02 93.3929 123.348 93.3929 122.508C93.3929 121.668 93.0942 120.996 92.4969 120.492C91.8995 119.969 91.1155 119.708 90.1449 119.708C89.2115 119.708 88.4275 119.96 87.7929 120.464C87.1769 120.968 86.8689 121.649 86.8689 122.508ZM113.102 120.128H115.65V124.16H113.102V128.5H108.342V124.16H99.8016V119.708L108.538 108.984H113.102V120.128ZM103.498 120.128H108.482V113.828H108.426L103.498 120.128ZM123.598 128.024C123.598 129.499 123.141 130.712 122.226 131.664C121.33 132.616 120.052 133.185 118.39 133.372V131.132C119.137 130.927 119.678 130.628 120.014 130.236C120.35 129.863 120.574 129.284 120.686 128.5H118.39V123.292H123.598V128.024ZM140.914 113.016H132.262L131.534 116.572H131.59C132.486 115.639 133.755 115.172 135.398 115.172C137.414 115.172 139.01 115.732 140.186 116.852C141.362 117.972 141.95 119.531 141.95 121.528C141.95 123.003 141.623 124.291 140.97 125.392C140.316 126.475 139.383 127.305 138.17 127.884C136.975 128.463 135.566 128.752 133.942 128.752C128.958 128.752 126.326 126.652 126.046 122.452H130.806C130.824 123.161 131.151 123.749 131.786 124.216C132.42 124.664 133.139 124.888 133.942 124.888C134.894 124.888 135.668 124.599 136.266 124.02C136.882 123.441 137.19 122.685 137.19 121.752C137.19 120.763 136.91 119.979 136.35 119.4C135.808 118.821 135.062 118.532 134.11 118.532C133.288 118.532 132.635 118.653 132.15 118.896C131.683 119.139 131.3 119.512 131.002 120.016H126.69L128.594 108.984H140.914V113.016ZM157.234 120.128H159.782V124.16H157.234V128.5H152.474V124.16H143.934V119.708L152.67 108.984H157.234V120.128ZM147.63 120.128H152.614V113.828H152.558L147.63 120.128ZM169.383 108.732C171.156 108.732 172.631 109.171 173.807 110.048C175.002 110.925 175.888 112.12 176.467 113.632C177.046 115.144 177.335 116.843 177.335 118.728C177.335 120.539 177.064 122.2 176.523 123.712C175.982 125.224 175.114 126.447 173.919 127.38C172.724 128.295 171.212 128.752 169.383 128.752C167.759 128.752 166.378 128.341 165.239 127.52C164.1 126.699 163.232 125.532 162.635 124.02C162.038 122.508 161.739 120.744 161.739 118.728C161.739 116.693 162.038 114.929 162.635 113.436C163.232 111.924 164.1 110.767 165.239 109.964C166.396 109.143 167.778 108.732 169.383 108.732ZM166.331 118.728C166.331 121.005 166.592 122.601 167.115 123.516C167.638 124.431 168.44 124.888 169.523 124.888C170.475 124.888 171.184 124.589 171.651 123.992C172.118 123.395 172.416 122.667 172.547 121.808C172.678 120.949 172.743 119.923 172.743 118.728C172.743 117.589 172.678 116.6 172.547 115.76C172.435 114.92 172.136 114.183 171.651 113.548C171.184 112.913 170.466 112.596 169.495 112.596C168.17 112.596 167.311 113.184 166.919 114.36C166.527 115.517 166.331 116.973 166.331 118.728Z" fill="#292E46"/>
<path d="M187.916 114.888H185.596V113.16H187.916V112.328H185.596V110.6H187.916V109.816C187.916 109.112 187.836 108.531 187.676 108.072C187.527 107.613 187.255 107.261 186.86 107.016C186.476 106.771 185.932 106.648 185.228 106.648C184.513 106.648 183.959 106.776 183.564 107.032C183.18 107.277 182.913 107.635 182.764 108.104C182.615 108.563 182.54 109.149 182.54 109.864V110.6H180.54V109.224C180.54 108.296 180.737 107.512 181.132 106.872C181.527 106.221 182.076 105.736 182.78 105.416C183.495 105.085 184.311 104.92 185.228 104.92C186.647 104.92 187.783 105.293 188.636 106.04C189.489 106.776 189.916 107.837 189.916 109.224V110.6H192.236V112.328H189.916V113.16H192.236V114.888H189.916V117H187.916V114.888Z" fill="#696D7E"/>
</g>
<defs>
<clipPath id="clip0">
<rect width="129" height="36" fill="white" transform="translate(63.5 100)"/>
</clipPath>
</defs>
</svg>
