<svg width="55" height="17" viewBox="0 0 55 17" fill="none" xmlns="http://www.w3.org/2000/svg">
<path opacity="0.8" d="M39.9781 0.690038C38.7005 0.224933 37.3502 -0.00865418 35.9906 0.000245017C31.5906 0.000245017 28.4854 2.21858 28.4625 5.39712C28.435 7.73462 30.6717 9.05004 32.3606 9.83379C34.0954 10.6359 34.6752 11.14 34.6706 11.8619C34.6592 12.955 33.2842 13.45 32.0077 13.45C30.2523 13.45 29.2898 13.2048 27.8117 12.5907L27.264 12.3363L26.6429 15.9984C27.7108 16.4452 29.6358 16.828 31.6273 16.8577C36.3046 16.8577 39.3617 14.6555 39.3983 11.2684C39.435 9.40525 38.2296 7.99129 35.6835 6.82712C34.139 6.07087 33.1765 5.56441 33.1765 4.7967C33.1765 4.11837 33.9992 3.39421 35.7179 3.39421C36.8609 3.3668 37.997 3.57994 39.0523 4.01983L39.4648 4.20545L40.0858 0.667121L39.9781 0.690038ZM51.3975 0.300455H47.96C46.8898 0.300455 46.09 0.591495 45.6202 1.65483L39.0088 16.6286H43.686L44.621 14.1765L50.3273 14.1811C50.4671 14.754 50.8773 16.6286 50.8773 16.6286H55L51.3975 0.300455ZM22.1375 0.162954H26.5902L23.8058 16.5002H19.3508L22.1375 0.158371V0.162954ZM10.819 9.16691L11.2819 11.4357L15.6383 0.300455H20.3569L13.3421 16.6057H8.635L4.785 2.79608C4.72291 2.56851 4.57506 2.37384 4.3725 2.25295C2.98781 1.53368 1.51904 0.989435 0 0.632745L0.0572917 0.288996H7.2325C8.20417 0.325663 8.98792 0.632746 9.25604 1.67316L10.819 9.17379V9.16691ZM45.8998 10.833L47.6758 6.26337C47.6529 6.3092 48.0425 5.3192 48.2671 4.70504L48.5719 6.11441L49.6008 10.8284H45.8998V10.833Z" fill="#1B2070"/>
</svg>
